# xmcd
#
# Track frame offsets:
# 150
# 25261
# 53124
# 79535
# 109691
# 141675
# 169075
# 192992
# 221271
# 236637
# 260434
#
# Disc length: 3926 seconds
#
# Revision: 0
# Processed by: cddbd v1.5.2PL0 Copyright (c) Steve Scherf et al.
# Submitted via: Audion 3.0.2 (http://www.panic.com/audion/)
#
DISCID=970f540b
DTITLE=AA.VV. - CRIMINAL - Demo only4 DJ's
DYEAR=1900
DGENRE=
TTITLE0=FEEL THE BIT
TTITLE1=RAW
TTITLE2=COME AND GO
TTITLE3=MANIAC TRIBE
TTITLE4=INSTRUMENTAL
TTITLE5=BIG GROOVE
TTITLE6=TRIGGY
TTITLE7=REACTION
TTITLE8=SUBJECT
TTITLE9=RED CAT
TTITLE10=KEEP ON
EXTD=
EXTT0=
EXTT1=
EXTT2=
EXTT3=
EXTT4=
EXTT5=
EXTT6=
EXTT7=
EXTT8=
EXTT9=
EXTT10=
PLAYORDER=
